# xmcd
#
# Track frame offsets: 
#        150
#        12359
#        27909
#        43018
#        53133
#        65859
#        83392
#        102934
#        133828
#        144434
#        160462
#        175910
#
# Disc length: 2622 seconds
#
# Revision: 0
# Processed by: cddbd v1.5.2PL0 Copyright (c) Steve Scherf et al.
# Submitted via: ExactAudioCopyFreeDBPlugin 1.0
#
DISCID=a10a3c0c
DTITLE=Greg Izor and The Box Kickers - Close To Home
DYEAR=2013
DGENRE=Blues
TTITLE0=Get My Money
TTITLE1=Can't Get Right
TTITLE2=Straight Time
TTITLE3=Three-Eyed Tiger
TTITLE4=What's It Gonna Take
TTITLE5=The Rub
TTITLE6=Call Me Lonesome
TTITLE7=Broadway Joe
TTITLE8=Hooper Street
TTITLE9=From Hello
TTITLE10=G.I. Blues
TTITLE11=Close To Home
EXTD=
EXTT0=
EXTT1=
EXTT2=
EXTT3=
EXTT4=
EXTT5=
EXTT6=
EXTT7=
EXTT8=
EXTT9=
EXTT10=
EXTT11=
PLAYORDER=
